<?xml version="1.0" encoding="UTF-8"?>
<svg width="800" height="600" viewBox="0 0 800 600" fill="none" xmlns="http://www.w3.org/2000/svg">
  <rect width="800" height="600" fill="#1E3A8A"/>
  <g opacity="0.8">
    <path d="M400 200L500 300H400V400L300 300H400V200Z" fill="#3B82F6"/>
    <path d="M400 200V300H500L400 400V300H300L400 200Z" fill="#1D4ED8"/>
  </g>
  <path d="M400 250C431.046 250 456 225.046 456 194C456 162.954 431.046 138 400 138C368.954 138 344 162.954 344 194C344 225.046 368.954 250 400 250Z" fill="#3B82F6" fill-opacity="0.8"/>
  <path d="M400 462C431.046 462 456 437.046 456 406C456 374.954 431.046 350 400 350C368.954 350 344 374.954 344 406C344 437.046 368.954 462 400 462Z" fill="#3B82F6" fill-opacity="0.8"/>
  <path d="M250 356C281.046 356 306 331.046 306 300C306 268.954 281.046 244 250 244C218.954 244 194 268.954 194 300C194 331.046 218.954 356 250 356Z" fill="#3B82F6" fill-opacity="0.8"/>
  <path d="M550 356C581.046 356 606 331.046 606 300C606 268.954 581.046 244 550 244C518.954 244 494 268.954 494 300C494 331.046 518.954 356 550 356Z" fill="#3B82F6" fill-opacity="0.8"/>
</svg>
